<svg xmlns="http://www.w3.org/2000/svg" viewBox="0 0 512 512">
  <defs>
    <linearGradient id="bg" x1="0%" y1="0%" x2="100%" y2="100%">
      <stop offset="0%" stop-color="#1D4ED8"/>
      <stop offset="100%" stop-color="#312E81"/>
    </linearGradient>
  </defs>
  <rect width="512" height="512" fill="url(#bg)"/>
  <path d="M 80 272 L 124 196 L 260 196 L 260 272 Z" fill="white" opacity="0.55"/>
  <path d="M 432 272 L 388 196 L 252 196 L 252 272 Z" fill="white" opacity="0.40"/>
  <path d="M 80 272 L 80 424 Q 80 444 100 444 L 412 444 Q 432 444 432 424 L 432 272 Z" fill="white" opacity="0.90"/>
  <rect x="186" y="96" width="140" height="176" rx="10" fill="white"/>
  <rect x="210" y="136" width="92" height="9" rx="4" fill="#93C5FD"/>
  <rect x="210" y="156" width="92" height="7" rx="3" fill="#BFDBFE" opacity="0.8"/>
  <rect x="210" y="174" width="68" height="7" rx="3" fill="#BFDBFE" opacity="0.8"/>
  <rect x="210" y="192" width="80" height="7" rx="3" fill="#BFDBFE" opacity="0.8"/>
  <path d="M 256 72 L 226 104 M 256 72 L 286 104" stroke="white" stroke-width="14" stroke-linecap="round" fill="none"/>
  <line x1="256" y1="72" x2="256" y2="44" stroke="white" stroke-width="14" stroke-linecap="round"/>
</svg>
